<svg xmlns="http://www.w3.org/2000/svg" version="1.1" xmlns:xlink="http://www.w3.org/1999/xlink" viewBox="0 0 200 200"><rect width="200" height="200" fill="url('#gradient')"></rect><defs><linearGradient id="gradient" gradientTransform="rotate(46 0.5 0.5)"><stop offset="0%" stop-color="#344e4b"></stop><stop offset="100%" stop-color="#60ca92"></stop></linearGradient></defs><g><g fill="#e6cc83" transform="matrix(7.907853403141361,0,0,7.907853403141361,56.11453688325682,126.09669879793496)" stroke="#344e4b" stroke-width="0.2"><path d="M0.54-5.24L0.54-5.36Q0.54-6.96 1.06-8.19Q1.59-9.42 2.58-10.09Q3.56-10.76 4.87-10.76L4.87-10.76Q6.52-10.76 7.45-9.65L7.45-9.65L7.57-10.57L10.56-10.57L10.56-0.40Q10.56 1.00 9.91 2.03Q9.26 3.06 8.03 3.61Q6.80 4.16 5.18 4.16L5.18 4.16Q4.01 4.16 2.92 3.72Q1.84 3.28 1.26 2.58L1.26 2.58L2.64 0.64Q3.55 1.73 5.06 1.73L5.06 1.73Q7.25 1.73 7.25-0.52L7.25-0.52L7.25-0.85Q6.30 0.20 4.85 0.20L4.85 0.20Q2.92 0.20 1.73-1.28Q0.54-2.76 0.54-5.24L0.54-5.24ZM3.84-5.16L3.84-5.16Q3.84-3.86 4.33-3.10Q4.81-2.34 5.69-2.34L5.69-2.34Q6.76-2.34 7.25-3.06L7.25-3.06L7.25-7.50Q6.77-8.22 5.71-8.22L5.71-8.22Q4.83-8.22 4.34-7.44Q3.84-6.65 3.84-5.16Z"></path></g></g></svg>